<?xml version="1.0" encoding="utf-8"?>
<!-- Generator: Adobe Illustrator 26.0.1, SVG Export Plug-In . SVG Version: 6.00 Build 0)  -->
<svg version="1.1" id="Layer_1" xmlns="http://www.w3.org/2000/svg" xmlns:xlink="http://www.w3.org/1999/xlink" x="0px" y="0px"
	 width="500px" height="500px" viewBox="0 0 500 500" style="enable-background:new 0 0 500 500;" xml:space="preserve">
<style type="text/css">
	.st0{fill:#635CFF;}
	.st1{fill:#FFFFFF;}
</style>
<path class="st0" d="M315.5,372.2H183.9c-31.2,0-56.5-25.3-56.5-56.5V184.1c0-31.2,25.3-56.5,56.5-56.5h131.7
	c31.2,0,56.5,25.3,56.5,56.5v131.7C372,346.9,346.7,372.2,315.5,372.2z"/>
<path class="st1" d="M300,215.2l-18.1,60.5h-55.2l-18.1-60.5h-36.8v26.3h17.2l18.1,60.5h94.3l26-86.8H300z M254.5,219.7l17.6,15.4
	l17.3-19.8l-34.9-30.5l-34.9,30.5l17.3,19.8L254.5,219.7z"/>
</svg>
